<svg width="1587" height="277" viewBox="0 0 1587 277" fill="none" xmlns="http://www.w3.org/2000/svg">
<path d="M0 277V0H145.763C162.47 4.74857 177.303 13.0586 190.259 24.93C203.216 36.8014 209.694 51.1791 209.694 68.0629C209.694 97.8733 197.079 118.714 171.847 130.586V132.169C203.216 145.623 218.9 166.728 218.9 195.483C218.9 228.459 197.249 255.631 153.946 277H0ZM69.5571 114.361H120.191C135.193 107.239 142.694 96.4224 142.694 81.9128C142.694 67.4033 135.705 55.9276 121.725 47.4857H69.5571V114.361ZM69.5571 231.097H122.236C128.374 227.668 133.829 222.26 138.603 214.873C143.717 207.486 146.275 200.1 146.275 192.713C146.275 185.326 144.229 178.599 140.137 172.531C136.046 166.464 130.931 161.979 124.794 159.077H69.5571V231.097Z" fill="white"/>
<path d="M422.957 0C446.824 15.0372 464.555 35.2186 476.148 60.5443C487.74 85.87 493.537 111.987 493.537 138.896C493.537 165.54 487.911 190.866 476.659 214.873C465.407 238.88 447.506 259.589 422.957 277H317.598C293.049 259.589 275.148 238.88 263.896 214.873C252.644 190.866 247.018 165.54 247.018 138.896C247.018 111.987 252.815 85.87 264.407 60.5443C276 35.2186 293.731 15.0372 317.598 0H422.957ZM351.865 231.097H388.69C397.214 223.447 404.374 211.048 410.171 193.9C416.308 176.489 419.377 158.154 419.377 138.896C419.377 119.638 416.478 101.567 410.682 84.6828C404.886 67.5352 397.725 55.1362 389.201 47.4857H351.865C343.341 55.1362 336.01 67.5352 329.873 84.6828C324.077 101.567 321.178 119.638 321.178 138.896C321.178 158.154 324.077 176.489 329.873 193.9C336.01 211.048 343.341 223.447 351.865 231.097Z" fill="white"/>
<path d="M700.158 0C724.026 15.0372 741.756 35.2186 753.349 60.5443C764.942 85.87 770.739 111.987 770.739 138.896C770.739 165.54 765.113 190.866 753.861 214.873C742.609 238.88 724.708 259.589 700.158 277H594.8C570.25 259.589 552.349 238.88 541.098 214.873C529.846 190.866 524.22 165.54 524.22 138.896C524.22 111.987 530.016 85.87 541.609 60.5443C553.202 35.2186 570.932 15.0372 594.8 0H700.158ZM629.067 231.097H665.891C674.415 223.447 681.576 211.048 687.372 193.9C693.51 176.489 696.578 158.154 696.578 138.896C696.578 119.638 693.68 101.567 687.884 84.6828C682.087 67.5352 674.927 55.1362 666.403 47.4857H629.067C620.543 55.1362 613.212 67.5352 607.075 84.6828C601.278 101.567 598.38 119.638 598.38 138.896C598.38 158.154 601.278 176.489 607.075 193.9C613.212 211.048 620.543 223.447 629.067 231.097Z" fill="white"/>
<path d="M810.628 277V0H880.696V116.736H883.253L947.185 0H1019.3L944.627 132.169L1022.88 277H945.139L884.276 155.911H880.696V277H810.628Z" fill="white"/>
<path d="M1047.37 277V0H1117.44V277H1047.37Z" fill="white"/>
<path d="M1199.48 0H1322.22V47.4857H1224.03L1222.49 49.86L1304.32 165.409C1321.03 188.624 1329.39 206.299 1329.39 218.434C1329.39 245.079 1317.96 264.601 1295.12 277H1159.58V231.097H1265.45L1266.99 228.723L1174.93 100.907C1161.63 82.4405 1154.98 67.4033 1154.98 55.7957C1154.98 28.3595 1169.81 9.76095 1199.48 0Z" fill="white"/>
<path d="M1435.1 277H1365.03V0H1435.1V111.591H1516.93V0H1587V277H1516.93V162.243H1435.1V277Z" fill="white"/>
</svg>
